<svg width="108" height="33" viewBox="0 0 108 33" fill="none" xmlns="http://www.w3.org/2000/svg">
<path fill-rule="evenodd" clip-rule="evenodd" d="M23.9022 14.9546C23.7074 13.458 23.2273 11.9728 22.4368 10.5793V10.5804C19.504 5.40833 13.3061 3.24932 7.89972 5.22294L15.614 9.15872C16.869 9.77424 17.9782 10.7168 18.7999 11.9478L20.6755 16.5704C20.6755 16.5704 19.3186 17.5542 23.9022 14.9546ZM3.94063 15.0932V15.0973C3.88023 15.441 3.84168 15.7899 3.82606 16.1399L2.93139 24.3582C2.4221 23.7698 1.96282 23.122 1.56393 22.419C-1.31162 17.349 -0.0930824 11.0741 4.16348 7.41115L7.99409 9.36602L7.96282 9.38372C5.7507 10.6387 4.34679 12.7696 3.93957 15.0942L3.94063 15.0932ZM16.2845 23.4679L23.6717 19.278C22.927 22.4045 20.9357 25.2249 17.9196 26.936C14.1942 29.0492 9.81786 28.9513 6.30597 27.0621L6.77047 22.794C9.31169 24.9051 12.9923 25.3426 16.0365 23.6168C16.1199 23.5689 16.2022 23.52 16.2834 23.47L16.2845 23.4679Z" fill="#FCFCFC"/>
<path d="M39.8423 23.74C35.4023 23.74 32.6223 20.8 32.6223 16.12C32.6223 11.5 35.5623 8.46 39.9823 8.46C43.6823 8.46 46.3423 10.58 46.8023 13.9H43.3823C42.9423 12.42 41.6823 11.58 39.9023 11.58C37.5023 11.58 36.0423 13.28 36.0423 16.1C36.0423 18.88 37.5223 20.62 39.9023 20.62C41.7223 20.62 43.0623 19.72 43.4623 18.26H46.8223C46.3023 21.56 43.5423 23.74 39.8423 23.74ZM48.0692 18.48C48.0692 15.32 50.3892 13.2 53.5892 13.2C56.7692 13.2 59.0892 15.32 59.0892 18.48C59.0892 21.64 56.7692 23.74 53.5892 23.74C50.3892 23.74 48.0692 21.64 48.0692 18.48ZM51.1692 18.46C51.1692 19.98 52.1492 20.98 53.5892 20.98C55.0092 20.98 55.9892 19.98 55.9892 18.46C55.9892 16.96 55.0092 15.96 53.5892 15.96C52.1492 15.96 51.1692 16.96 51.1692 18.46ZM63.9548 23.5H60.8748V13.5H63.7548L63.9548 14.54C64.4548 13.84 65.4348 13.18 66.8748 13.18C68.3748 13.18 69.3348 13.88 69.9148 14.94C70.4348 13.88 71.6148 13.18 73.0548 13.18C75.6348 13.18 76.9148 14.68 76.9148 16.96V23.5H73.8348V17.82C73.8348 16.56 73.1748 15.96 72.1948 15.96C71.3148 15.96 70.4348 16.44 70.4348 18.14V23.5H67.3548V17.82C67.3548 16.58 66.7148 15.98 65.7348 15.98C64.8548 15.98 63.9548 16.46 63.9548 18.14V23.5ZM78.177 13.5H79.557V12.7C79.557 9.72 81.117 8.42 83.657 8.42C84.077 8.42 84.557 8.46 85.037 8.54V11.18H84.177C82.917 11.18 82.637 11.84 82.637 12.7V13.5H85.037V16.06H82.637V23.5H79.557V16.06H78.177V13.5ZM90.7688 23.76C87.7488 23.76 85.5888 21.56 85.5888 18.48C85.5888 15.36 87.6888 13.18 90.7088 13.18C93.8488 13.18 95.8088 15.24 95.8088 18.5V19.28L88.5488 19.32C88.7288 20.64 89.4688 21.26 90.8288 21.26C91.9888 21.26 92.8088 20.84 93.0288 20.12H95.8488C95.4888 22.34 93.5088 23.76 90.7688 23.76ZM90.7288 15.68C89.5088 15.68 88.8288 16.22 88.5888 17.42H92.7488C92.7488 16.36 91.9688 15.68 90.7288 15.68ZM100.555 23.76C98.435 23.76 97.115 22.52 97.115 20.56C97.115 18.72 98.415 17.58 100.815 17.4L103.615 17.18V17.02C103.615 16.04 103.015 15.52 101.915 15.52C100.615 15.52 99.915 16.02 99.915 16.92H97.355C97.355 14.66 99.215 13.18 102.075 13.18C104.975 13.18 106.615 14.8 106.615 17.66V23.5H103.895L103.695 22.18C103.375 23.1 102.055 23.76 100.555 23.76ZM101.635 21.48C102.815 21.48 103.635 20.9 103.635 19.76V19.22L102.075 19.36C100.735 19.48 100.255 19.78 100.255 20.42C100.255 21.14 100.695 21.48 101.635 21.48Z" fill="#FCFCFC"/>
</svg>
